<svg id="Layer_3" data-name="Layer 3" xmlns="http://www.w3.org/2000/svg" viewBox="0 0 1100.52 848.73"><defs><style>.cls-1{fill:#f7f7f7;}</style></defs><title>CostaRicaMapTrans</title><path class="cls-1" d="M1086.12,861.12H-14.4V12.39H1086.12ZM259.82,178.69a7.36,7.36,0,0,1,1.44,1.65c.27.45,1.38,2.31.61,4a4.23,4.23,0,0,1-2.77,2.06c-1.59.51-4.07.56-5-.72-.38-.5-.44-1.09-1.13-1.55a2.75,2.75,0,0,0-1.34-.41l-1.75.31-.41,1.13-2.16.41-.31,2.27,1,.72,1.95,1.74,3,.62,2.36,3,3.5,1.65-.62,2.16-2.67,1.75-2,.92,2.06.72.82,1.75-1.33.41-.72,1.55-1,1-.62-2.06-2.06-1-2.57-.1-2.67.2-1.75.11-2.37.51-1.44,1.65L241.3,207l-.72.92-1.85-.51L237,206l-.92-1,.82-1.23-.51-1.34-1.75-.72-1.65-.21L230.4,201l-3-.1-2.78.51,3.19,1.65-.72,2.06-1.24.3-2.26,1.65-3.29.51-8.33,3.6,6.68-1.54,2.78,2.37,3.09.82,3.08,1.75,1.44,3.19,4.43-.52,3.08,1.65,3,.1.93.21.62,1.54-3-.1.52,1.75,1.13,2.67,3,.31,2,2,.82-1,1.34-1.33,2.36-.41,2.68,1.23,2,.31,1.86.41,3.29.21,2.88,3.8,1.85,3.5-.52,2.26-1,2.88.92,2.37,1,7-.72,2-1.85-.31v1.75l-3.19,2.26,2.16.1-.82,1.34-2.06,2.16.62.92-1.65,2.47,2.47-.51,1.44-1,1-2.88,3.7-2.26,3.6,2.26-1.34,3-1.85.93-.82,2.16-4.42.82-.83,3.09-2.77.51.2,3.09-1.64-.41-.62-1.14-1,1.65L251,272.19l-2.47,2.47-1.75.1-1-.41L245,273h-3l-.61,2-2.06,2.57-2.68-.31.72,2.47,1.75.92.21,2.16,2.36,1.34,1.44,2.88-.3,2.67-1.44,2-2.27-1.44.52,2.88-.72,3-1.75,1.34-2-.21-.92-1.64-1.85,2.88-2.06,3.08-.93,2.47-1.33.21-1.85.41-1,2.36,2.88,1.14,2.57,1.85,1.95,3.91-3.19,3.39V319l.83,2.26-.83,2.78,1.65,3.8.93,2.88V334l.82,1.13,2.06,1.23,2.57,5.35,1.33,6,1.75,2.88,1.44,4.32,3.09,3.18,2.06,3.19,3.18,4.63,2.78,3,4.58,4.22,1.7,3.91,1.13,2.06,1.64,3.39.41,2.37-.72,1.64,2.68,1,1.64-1.34,2.16,1-.2,1.65,6.79.1,2.36,1.85,2.27-.1,2.88.31,2.26.41,2.36-.93,2,1.44,2,1.65,2-.93,1,.62,2.46,2.16,2.16.93,1.75-2.47h3.81l2.26,1.75,2.78.72,1-1,2.88.92,3.49,1.34,4.63,2.78.72,2.06,1.65.1,2.88.41,3.6,2.06,3,3.29.62,2.67-.72,2,2.06.41,3.8,2.88,2.88,3.29,2.06,3.29,1,3.81,1.64,1.75,3.09,3.18,3,3.43,2.78,2.13.1,1.75.1,3.29.93,1.44,1.65,2.06,2.26.41,1.34,1.54,1.23-1.85,1.85-.93,1.13-2.77,1.13-4.22,1-2.85,1.13-2.91,1.65-2.88,2.67-1.65.93-.92,1.34-.93,1.64-.72h2.27l1.74-2.06.52-1.33-1.54-1-1.86-.93v-1.64l.72-1,1-1.65,1.55-.51,2.05.2,2.27,1.75,1.64.83h1.85l.52-1.55-.31-2.57.72-1.23,2.47.2.82-1.54,1.23-1.54-.1-2.47,1.54-.93,2.16-.61.72-2.68,2.16-.1,1.75-.93,1.75-1.54-2.57-.51-2-.31-1.65.72-2.16.1-2-1.13-.42-1.75,1.34-1.13,1-.31.82-.41-.2-.82-1.85-1.44-1.55-1.44-1.23-2.06,1.34-1.44,1.44-.82.41-1.44-.41-1.75L392.61,382l-4.43-1.85-3.91.41-5.55-.72-3.6-3.81-2.06-1.85h-1.75l-3,1.85-.72-1.33-1.64-.62-2.16.21-1.24-.42-2.16-.61-.1-1.13L358.15,371,357,370l-2.47-1.55-2.78-3.29-2.88-1.44-.31-1.64,2.27.61,2.57.52v-1.44l-2.27-1-2.36-2.16-1.85-2.37-2-.2-3.6-2.88-2.47-1.44-.72-2.68,1.55-2.16-.31-1.33-1-1.75-.82-3.91.82-.93-.51-3.7-.31-6.07-.31-4.32,2,2.06.62,2.26-.1,1.65v1.64l.92,2.27.93,2,4.63,2.57,6,.62,4.73,1.44,2-2,2.78-.62,2.67.72-.51,1.44,1.44,1.13,3.29,2.57,2.26,1.55.72-1.14,2-.1,4,2.06,2.05,2.36,3.81,3,3.5.51.92,2.16.82,1.34L387,358.18l4.11.41,2.88,3.91,1.55.1,4.52,3.09,5.35,3.9,3.29,2,3.19,1.23-3.09,1-.41,1.44,4.73-.51,3.3-.41h4.83l4.22.1,1.85.72.92,2.16.62,3,2.68,2.47,1.64,2.16-3.5,3.6,2.58,2.67,4,3.4-1.65.62,2.16,1.74,3.81,3.3,2.77,3.7,2.78,4.11.93,3.19-.83,3.7-2.05,1.86-2.37,2.88-.62,2.36-1.54,1.54-.1,2.27.92,1.64-.82,2-.72,2.16,1.85-.31,2,.72.51,1.44L442,434.94l2.47,2.13h1.74l2.47,2.47v1.85l2.16,3,4.84,2.88,3.6,3.29,1.54-.82,2.57.51-.82,1.55,2.36,2.16.83-.21,5-.51,4.21-.52,4.74,1.24,5.34,1.33,5,2,5.56,1,3.6.82,2-1.75.72,1.65,1.85,1.23,3.91.72,7.92,2.06,4.12,2.57,4.42.31,2.88,1.85,2.88,2.78-.21,1,.42.92.2,1.85-1.64,1.75,2.16-.1,1.85,1.95,1,2,1.95-1.13,1.44.1c0,1.7.23,2.17.51,2.26.48.16.88-.78,2-1.13.86-.27,1.53,0,3,.51,2.61.88,2,.42,4.32,1.24a39.63,39.63,0,0,1,4.84,2.06c8.39,4.19,14.77,5.2,23.14,11.31,1.11.81,2.17,1.64,3.19,2.47l2.88,1.85,3.19,3.09,3.29,3.6-.21,2.26,3.91.31,4.42,1.75,5.15,3.7,1.33,2.06v3.18l.72,2.27,1.24-1.13,1-.62,2.46,1.23,2.68,3,.62,1.54,2.77,2.67,3,2.68,3.9,5.35,1.44-1.14,2.06,2.47-1.34,1.44,1,3.09.93,2.47.1,4.21.72,4.63,2.68,4.94-1.86,2.67-.3,1.44h1.44L630.1,565l-2.77.11.2,2.46-1.64,3.4,2.67-.31,2.78.82,2,2.06-11,10.8,2.78,2.88L623.42,589l-.31,1.64v1.55l2.26.1-.92,1.34-1.65,1.54-.51,3.39-.93,2.88-2.78.31-2.77.11L612,603.18l-1.23,2.68-.83,3.19-2.47,1.85-.51,2.16-1.44,2.16,2,1.95v2.06l.93,2.78,1.34-1,3,.61,4.32,4.12,6.07,7.51,3.39,2.67,3.4,2.06,2.16,2.78,1.23,2.36,4,2.78,5.87-.52,5.34-.3,6.9.82,7.3,1.85,6.68,3.6,3.81,1.23,8,3.5,4.73,1.44,2-1.23.82-2.06-.31-2,.31-2.47.93-1.13-.93-1.86L687.29,644l.82-.52,1.55-2.67-3.29-4.94.61-8.12-1.23,1.33-1.85-1.23-2.27-1.65-2-2.67-2.47-.93L675,621.9l-2.78.52L670.53,621,668,619.33l-3.8-2.67-3.4-4.63-.1-2.88-.82-2.06-2.57-3-1.65-.72-.72-.93-.1-1.33-1.13-1-1.44,1-.41-1.14v-1.54l1.33-1.64,2.68-.72,3.29.41.82,1,1.65.2,2.26-1,1.44-2,1.23-.52,2,.83,1.85-2.78.51,1.85,4.74-.2,2.88,2.26.82-.52,1.13.21.21,1.34-.93.92-.41,2.16-.1,2.37,1,2,3.4,1.13,2.16,3,2.36-1.13,2.47,1,1.75-.61,1.24,3,1.74,2.67.83-2.36,2.88-.1.72,1.44,2.16.41,3.08,1,.83-1.24-.11-2.36,3.09,1.44,2.88,3.08,2,2.88.11,1.85L712,621.08l-1.65.82-.62-2.88-.61-1.64.2-1.65-2.57-1.44-1,2.37,1.55,4.11,3.08,3.7,1.85,1.14,1.55,1.54-.31.82.1,1.65-1.95-2.16-.21,1.23.93,1.13.2,1.65a26.13,26.13,0,0,1,4.22,4.52c2.17,3,1.52,3.5,3.29,5.25.54.53,1.43,1.31,1.34,2.26,0,.21-.09.39-.83,1.44-1.17,1.68-1.34,1.72-1.54,2.27-.37,1,.1,1.38-.2,2.26-.37,1-1.31,1.4-2.37,2.06-.75.46-4,2.47-4.42,5.14a5.94,5.94,0,0,0,1.13,4c.62,1.05,1.4,1.59,3.6,3.5a36.15,36.15,0,0,0,4.73,3.6c4,2.5,4.94,1.76,7.92,4.11a22.92,22.92,0,0,1,3.5,3.09c1,1.16,1.75,2.38,3.29,2.77a4.53,4.53,0,0,0,1.34.11c2.31.06,4.17,2.9,5.34,4.63,4.9,7.19,8.84,11.33,8.44,13.78a4.41,4.41,0,0,0,.2,2.47,4.16,4.16,0,0,0,.83,1.23c1.38,1.55,2,3.41,2.77,6.07.61,2,.52,2.49.31,2.88-.39.74-1,.64-1.64,1.54a3.09,3.09,0,0,0-.41,2.88c.31.67.86.65,1.23,1.55s.14,1.67.62,2.05a1.79,1.79,0,0,0,2-.2c1-.7.72-2.31.62-4.43-.26-5.33.84-5,.2-8.33a14.71,14.71,0,0,0-2-5.76,5.41,5.41,0,0,1-.93-1.85c-.32-1.32.19-1.83.31-3.8a6.05,6.05,0,0,0-.51-3.71,4.17,4.17,0,0,0-2.06-1.85c-.84-.3-1.38-.08-1.75-.51s-.15-1.15,0-2a13.6,13.6,0,0,0-.1-4.83c-.23-1.73-.35-2.61-1-3.5-.91-1.19-2.12-1.56-3.7-2.06s-2.76-.85-3.91-.3c-.78.37-1.14,1-1.65.82s-.54-.8-.92-1.54a6.4,6.4,0,0,0-2.37-2.27,22.54,22.54,0,0,0-5-2.67,3.93,3.93,0,0,1-1.85-1.24,3.71,3.71,0,0,1-.72-2.26,2.62,2.62,0,0,1,.62-2,2.35,2.35,0,0,1,1.64-.52c1.59,0,3.45-1,6.9-2.77,5.47-2.87,10.31-9.38,11.21-11.52a2.46,2.46,0,0,1,1.23-1.44,2.58,2.58,0,0,1,1.75.1,17.64,17.64,0,0,0,4,.1,12.27,12.27,0,0,0,5.66-1.44c4.23-2.53,5.17-7.49,5.35-8.64.12-.81.87-5.64-.11-8.54a3,3,0,0,1-.1-1.85,3.57,3.57,0,0,1,2-2l.2-2.06-.92-2.36-.21-2.78-1.23-1.75,1.54-2.47-.93-2.57L765.46,607l-.51-2-1.65-1.44-.82-2.67L756.72,597l-.51-2.16-2.88-3.19.82-1.64-.62-2.16,3.91-1,.72-3.09,3.5-.92.82-2-2.57-4.52,3.6-3.81,6.79-1.44,2.57-2.06,8-1.95,3.6-5.14,4.73-2.37.41-2.78L786.86,554l-1-1.85-1.65-3.5-3.7-2.47L774,544.86l-2.57-3.08-9.26-6-2.57-4L758,530.46l-1.74-.72-3.09,2.37-2.26.51-.93-3-.2-67.58,2.67-.51,14.3-3.7-2.47-1.44-.21-1.86-2-.2-.93-.93.51-5.14-2,.1.2-2.88.83-3.91,1.64-1,.93-2.58,1.64-.92,3.4-.1,4.42,3.7,3.19-1.54,4.22,3.49,3.49-.1.83,2.67,2.26.21v1.75l2.78,2.88,1.23-1.75,2.16,2.57v.82l-1.34.62,1.24,2.37.72,1.75,2.26-.42,1-.72.92,1.44,1-.72,1.75-1.23,1.13,1.75,1.24,1.85,1.23-.82,1.54-.83,2.06.83,2.06-3.5.31-3.19-.83-2.67.93-1.44h2.16l2.16.41,1.23,2.36,1.93.62v-1l-1.21-3.7-7.2-3.7L807.94,440l-2.26-2.37v-2.34l-1.23-1.46h-2.06l-1.75-.62-.72.62H795.6l-1.34-1.24-1.33.62h-3.4l-2.57-1-2.67-1.34h-1.55l-5.55-1-1.65-2.06-3-5.45-1.95-3.6.2-1.65.86-1.13v-1.2l-3.6,1.2-4.56-1-11-14.16L745,391.4,735,378.68,733,373.4v-3.84l-3.36-1.68-5.52-.48-2.4,2.16-2.64-2.4-11-12-13.92-18.24-6-8.88-1.44,1.44L678.07,318l-17.28-22.8L650,275l-5.28-12.24L638,246.44l-8.4-28.32-3.84-7.2-6-7.2-5-1.44,2.64,4.08v3.36l2.4,2.88-1.68,5.76,1.68,6-3.36,4.08-6,1-4.32.72-3.36,2.4-5.28.24-3.6,3.6-5-.24-5.28,5.28H577l-6,1.2v-2.88h-5.28l-1.68-3.84-5-2.16-3.12-4.8-2.4-.72v2.64l-3.6-.24L547,233.72l-5.76-2.4-3.12,1.44-1.2-4.32-7.68,1.2-2.16-1-2.88,1L521.35,227l-3.6-2.4,2.64-3.12V216.2l-5.66-4.8h-6.34V209l-2.64-2.4-4.32-1-2.52-4h-1.8l1.8-5L495.67,192l-5.76,4.32-8.28,3.6-4-3.24-4.32-5.4-4.68-2.52-6.48-1.8-4.32-4.68-6.12,2.88-12.6-7.91-42.84,24.47L346.63,184l-29.16-15.48-10.08,1.08-19.8-7.92-5.76-6.84-10.08-2.14-2.88,5.38c-10.15,13.89-12,18.27-11.16,19.08A15.9,15.9,0,0,1,259.82,178.69Z" transform="translate(14.4 -12.39)"/></svg>