<svg id="Layer_3" data-name="Layer 3" xmlns="http://www.w3.org/2000/svg" viewBox="0 0 608.28 568.68"><defs><style>.cls-1{fill:none;stroke:#0d0f21;stroke-miterlimit:10;stroke-width:4px;}</style></defs><title>CostaRicaMap</title><path class="cls-1" d="M1054.79,952.31c-.87-.81,1-5.18,11.16-19.08l2.88-5.38,10.08,2.14,5.76,6.84,19.8,7.92,10.08-1.08,29.16,15.48,49.68,17.64,42.84-24.47,12.6,7.91,6.12-2.88,4.32,4.68,6.48,1.8,4.68,2.52,4.32,5.4,4,3.24,8.28-3.6,5.76-4.32,3.24,4.68-1.8,5h1.8l2.52,4,4.32,1,2.64,2.4v2.4h6.35l5.65,4.8v5.28l-2.64,3.12,3.6,2.4,2.88,2.64,2.88-1,2.16,1,7.68-1.2,1.2,4.32,3.12-1.44,5.76,2.4,2.88-3.12,3.6.24v-2.64l2.4.72,3.12,4.8,5,2.16,1.68,3.84h5.28v2.88l6-1.2h6.48l5.28-5.28,5,.24,3.6-3.6,5.28-.24,3.36-2.4,4.32-.72,6-1,3.36-4.08-1.68-6,1.68-5.76-2.4-2.88v-3.36l-2.64-4.08,5,1.44,6,7.2,3.84,7.2,8.4,28.32,6.72,16.32,5.28,12.24,10.8,20.16,17.28,22.8,8.64,11.52,1.44-1.44,6,8.88,13.92,18.24,11,12,2.64,2.4,2.4-2.16,5.52.48,3.36,1.68v3.84l1.92,5.28,10.08,12.72,7.44,9.36,11,14.16,4.56,1,3.6-1.2v1.2l-.85,1.14-.21,1.64,2,3.6,3,5.45,1.64,2.06,5.56,1h1.54l2.68,1.34,2.57,1H1590l1.34-.61,1.34,1.23H1597l.72-.62,1.74.62h2.06l1.24,1.46v2.35l2.26,2.36,1.13,1.75,7.2,3.7,1.2,3.71v1l-1.92-.62-1.23-2.37-2.16-.41h-2.16l-.93,1.44.82,2.68-.31,3.18-2.05,3.5-2.06-.82-1.54.82-1.24.82-1.23-1.85-1.13-1.75-1.75,1.24-1,.72-.93-1.44-1,.72-2.27.41-.72-1.75-1.23-2.36,1.34-.62V1226l-2.16-2.58-1.24,1.75-2.78-2.88v-1.75l-2.26-.2-.82-2.68-3.5.11-4.22-3.5-3.18,1.54-4.43-3.7-3.39.1-1.65.93-.92,2.57-1.65,1-.82,3.91-.21,2.88,2.06-.11-.51,5.15.92.92,2.06.21.2,1.85,2.47,1.44-14.29,3.7-2.68.52.21,67.57.92,3,2.27-.52,3.08-2.36,1.75.72,1.65,1.33,2.57,4,9.25,6,2.58,3.09,6.48,1.33,3.7,2.47,1.64,3.5,1,1.85,2.78,2.78-.41,2.78-4.73,2.36-3.6,5.14-8,2-2.57,2.06-6.79,1.44-3.6,3.8,2.58,4.53-.83,2-3.49.93-.72,3.08-3.91,1,.61,2.16-.82,1.65,2.88,3.19.52,2.16,5.76,3.9.82,2.68,1.64,1.44.52,1.95,2.88,3.29.92,2.58-1.54,2.46,1.24,1.75.2,2.78.93,2.37-.21,2.05a3.51,3.51,0,0,0-2,2,2.93,2.93,0,0,0,.1,1.85c1,2.89.23,7.72.1,8.54-.17,1.14-1.12,6.1-5.35,8.64a12.36,12.36,0,0,1-5.65,1.44,17.36,17.36,0,0,1-4-.11,2.64,2.64,0,0,0-1.75-.1,2.52,2.52,0,0,0-1.24,1.44c-.89,2.15-5.73,8.65-11.21,11.52-3.45,1.8-5.31,2.78-6.89,2.78a2.35,2.35,0,0,0-1.65.51,2.69,2.69,0,0,0-.61,2,3.66,3.66,0,0,0,.72,2.26,4,4,0,0,0,1.85,1.23,23.26,23.26,0,0,1,5,2.68,6.35,6.35,0,0,1,2.36,2.26c.38.74.45,1.4.93,1.54s.86-.45,1.65-.82c1.15-.55,2.36-.17,3.9.31s2.79.86,3.71,2.06c.68.89.79,1.77,1,3.49a13.9,13.9,0,0,1,.1,4.84c-.16.8-.39,1.49,0,1.95s.91.22,1.75.52a4,4,0,0,1,2,1.85,6,6,0,0,1,.52,3.7c-.12,2-.64,2.49-.31,3.81a5.41,5.41,0,0,0,.93,1.85,14.92,14.92,0,0,1,2,5.76c.63,3.31-.46,3-.21,8.33.1,2.11.35,3.72-.61,4.42a1.83,1.83,0,0,1-2,.21c-.48-.38-.2-1.07-.61-2.06s-.93-.87-1.24-1.54a3.11,3.11,0,0,1,.41-2.88c.61-.91,1.25-.8,1.65-1.55.2-.38.3-.91-.31-2.88-.82-2.66-1.4-4.52-2.78-6.06a4.2,4.2,0,0,1-.82-1.24,4.45,4.45,0,0,1-.21-2.47c.4-2.44-3.54-6.58-8.43-13.78-1.17-1.72-3-4.56-5.35-4.63a4.87,4.87,0,0,1-1.34-.1c-1.53-.39-2.29-1.61-3.29-2.78a23.3,23.3,0,0,0-3.49-3.08c-3-2.36-3.93-1.62-7.92-4.12a36.38,36.38,0,0,1-4.74-3.6c-2.19-1.91-3-2.44-3.6-3.5a6,6,0,0,1-1.13-4c.45-2.67,3.68-4.68,4.43-5.14,1-.66,2-1,2.36-2.06.31-.88-.17-1.21.21-2.26.19-.55.37-.58,1.54-2.26.74-1,.8-1.23.82-1.44.1-1-.8-1.73-1.33-2.27-1.78-1.75-1.12-2.25-3.3-5.24a26,26,0,0,0-4.21-4.53l-.21-1.64-.92-1.13.2-1.24,2,2.16-.11-1.64.31-.83-1.54-1.54-1.85-1.13-3.09-3.7-1.54-4.12,1-2.36,2.57,1.44-.21,1.64.62,1.65.62,2.88,1.64-.83,1.75-1.33-.1-1.85-2-2.88-2.88-3.09-3.08-1.44.1,2.37-.82,1.23-3.09-1-2.16-.41-.72-1.44-2.88.1-.82,2.37-1.75-2.68-1.23-3-1.75.62-2.47-1-2.37,1.13-2.16-3-3.39-1.13-1-2,.1-2.36.42-2.16.92-.93-.2-1.34-1.14-.2-.82.51-2.88-2.26-4.73.21-.51-1.86-1.86,2.78-2-.82-1.23.51-1.44,2-2.27,1-1.64-.21-.83-1-3.29-.41-2.67.72-1.34,1.65v1.54l.41,1.13,1.44-1,1.13,1,.11,1.34.72.92,1.64.72,2.57,3,.83,2,.1,2.88,3.39,4.63,3.81,2.68,2.57,1.64,1.65,1.44,2.77-.51,2.27.72,2.47.92,2,2.68L1481,1403l1.85,1.24,1.24-1.34-.62,8.13,3.29,4.93-1.54,2.68-.82.51,1.44,2.78.92,1.85-.92,1.13-.31,2.47.31,2-.83,2.06-2,1.24-4.73-1.44-8-3.5-3.81-1.24-6.69-3.6-7.3-1.85-6.89-.82-5.35.31-5.86.51-4-2.77-1.24-2.37-2.16-2.78-3.39-2-3.4-2.68-6.06-7.51-4.32-4.11-3-.62-1.33,1-.93-2.78v-2l-2-2,1.44-2.16.51-2.16,2.47-1.85.82-3.19,1.24-2.67,3.8-1.34,2.78-.1,2.78-.31.92-2.88.52-3.4,1.64-1.54.93-1.34-2.27-.1v-1.54l.31-1.65,1.75-1.75-2.78-2.88,11-10.8-2.06-2.05-2.77-.83-2.68.31,1.65-3.39-.21-2.47,2.78-.1-2.78-2.47H1423l.31-1.44,1.85-2.68-2.67-4.93-.72-4.63-.11-4.22-.92-2.47-1-3.08,1.34-1.44-2.06-2.47-1.44,1.13-3.91-5.35-3-2.67-2.78-2.68-.62-1.54-2.67-3-2.47-1.24-1,.62-1.23,1.13-.72-2.26v-3.19l-1.34-2.06-5.14-3.7-4.42-1.75-3.91-.31.2-2.26-3.29-3.6-3.19-3.09-2.88-1.85c-1-.83-2.07-1.65-3.19-2.47-8.36-6.11-14.74-7.12-23.14-11.31a40.94,40.94,0,0,0-4.83-2.06c-2.32-.81-1.72-.36-4.32-1.23-1.46-.49-2.13-.79-3-.52-1.08.35-1.48,1.29-2,1.14-.28-.1-.56-.57-.51-2.27l-1.44-.1-2,1.13-1-2-1.85-2-2.16.11,1.65-1.75-.21-1.85-.41-.93.21-1-2.88-2.78-2.88-1.85-4.43-.31-4.11-2.57-7.92-2-3.91-.72-1.85-1.24-.72-1.64-2,1.74-3.6-.82-5.55-1-5-1.95-5.35-1.34-4.73-1.23-4.22.51-5,.52-.82.2-2.37-2.16.83-1.54-2.57-.52-1.55.83-3.6-3.29-4.83-2.88-2.16-3v-1.85l-2.47-2.47h-1.75l-2.47-2.12,1.24-1.48-.52-1.44-2-.72-1.85.31.72-2.16.82-2-.93-1.65.11-2.26,1.54-1.54.62-2.37,2.36-2.88,2.06-1.85.82-3.7-.92-3.19-2.78-4.12-2.78-3.7-3.8-3.29-2.16-1.75,1.64-.62-4-3.39-2.57-2.68,3.5-3.6-1.65-2.16-2.67-2.46-.62-3-.93-2.16-1.85-.72-4.21-.1h-4.84l-3.29.41-4.73.52.41-1.44,3.09-1-3.19-1.24-3.29-2-5.35-3.91-4.53-3.09-1.54-.1-2.88-3.91-4.12-.41,1.65-1.75-.82-1.33-.93-2.16-3.5-.52-3.8-3-2.06-2.37-4-2-2,.1-.72,1.13-2.27-1.54-3.29-2.57-1.44-1.14.52-1.44-2.68-.72-2.78.62-2,2-4.73-1.44-6-.62-4.63-2.57-.92-2.06-.93-2.26v-1.65l.11-1.64-.62-2.27-2-2,.31,4.32.31,6.06.52,3.71-.83.92.83,3.91,1,1.75.31,1.34-1.54,2.16.72,2.67,2.47,1.44,3.6,2.88,2,.21,1.85,2.36,2.37,2.16,2.26,1v1.44l-2.57-.51-2.26-.62.31,1.65,2.88,1.44,2.77,3.29,2.47,1.54,1.13,1,2.16,1.13.11,1.13,2.16.62,1.23.41,2.16-.21,1.65.62.72,1.34,3-1.85h1.75l2.06,1.85,3.6,3.8,5.55.72,3.91-.41,4.42,1.85,2.88,2.06.41,1.75-.41,1.44-1.44.82-1.34,1.44,1.24,2.06,1.54,1.44,1.85,1.44.21.82-.82.41-1,.31-1.34,1.13.41,1.75,2,1.13,2.16-.1,1.64-.72,2,.31,2.57.51-1.75,1.55-1.75.92-2.16.11-.72,2.67-2.16.62-1.54.92.1,2.47-1.23,1.54-.83,1.55-2.47-.21-.72,1.24.31,2.57-.51,1.54h-1.85l-1.65-.82-2.26-1.75-2.06-.21-1.54.52-1,1.64-.72,1v1.65l1.85.92,1.54,1-.51,1.34-1.75,2.06h-2.26l-1.65.72-1.33.92-.93.93-2.67,1.64-1.65,2.88-1.13,2.92-1,2.84-1.13,4.22-1.13,2.78-1.85.92-1.24,1.85-1.34-1.54-2.26-.41-1.64-2.06-.93-1.44-.1-3.29-.11-1.75-2.77-2.12-3-3.43-3.08-3.19-1.65-1.75-1-3.8-2-3.3-2.88-3.29-3.81-2.88L1130,1188l.72-2-.61-2.68-3-3.29-3.6-2.06-2.88-.41-1.64-.1-.72-2.06-4.63-2.77-3.5-1.34-2.88-.93-1,1-2.77-.72-2.27-1.75h-3.8l-1.75,2.47-2.16-.92-2.47-2.16-1-.62-2,.92-2-1.64-1.95-1.44-2.37.92-2.26-.41-2.88-.31-2.26.11-2.37-1.85-6.79-.11.21-1.64-2.16-1-1.65,1.34-2.67-1,.72-1.65-.41-2.36-1.65-3.4-1.13-2.06-1.7-3.9-4.57-4.22-2.78-3-3.19-4.63-2.06-3.19-3.08-3.19-1.44-4.32-1.75-2.88-1.34-6-2.57-5.34-2.06-1.24-.82-1.13v-3.29l-.92-2.88-1.65-3.81.82-2.77-.82-2.27v-1.75l3.19-3.39-2-3.91-2.57-1.85-2.88-1.13,1-2.37,1.85-.41,1.34-.2.93-2.47,2-3.09,1.85-2.88.93,1.65,2,.2,1.75-1.33.72-3-.51-2.88,2.26,1.44,1.44-2,.31-2.68-1.44-2.88-2.37-1.33-.2-2.16-1.75-.93-.72-2.47,2.67.31,2.06-2.57.62-1.95h3l.72,1.33,1,.41,1.75-.1,2.47-2.47,2.88-1.75,1-1.64.61,1.13,1.65.41-.21-3.08,2.78-.52.82-3.08,4.43-.83.82-2.16,1.85-.92,1.34-3-3.6-2.26-3.71,2.26-1,2.88-1.44,1-2.47.52,1.64-2.47-.61-.93,2.05-2.16.83-1.33-2.16-.11,3.18-2.26v-1.75l1.86.31.72-1.95-1-7-.93-2.36,1-2.88.51-2.27-1.85-3.49-2.88-3.81-3.29-.21-1.85-.41-2.06-.31-2.67-1.23-2.37.41-1.33,1.34-.83,1-2-2-3-.31-1.14-2.67-.51-1.75,3,.1-.61-1.54-.93-.2-3-.11-3.09-1.64-4.42.51-1.44-3.19-3.09-1.75-3.08-.82-2.78-2.36-6.69,1.54,8.34-3.6,3.29-.52,2.26-1.64,1.23-.31.72-2.06-3.18-1.64,2.77-.52,3,.11,2.57.41,1.64.2,1.75.72.52,1.34-.83,1.23.93,1,1.75,1.44,1.85.52.72-.93-1.44-1.85,1.44-1.65,2.36-.51,1.75-.1,2.68-.21,2.57.1,2.06,1,.61,2.06,1-1,.72-1.54,1.34-.41-.82-1.75-2.06-.72,1.95-.93,2.68-1.75.61-2.16-3.49-1.64-2.37-3-3-.62-2-1.75-1-.72.3-2.26,2.16-.41.42-1.14,1.74-.3a2.55,2.55,0,0,1,1.34.41c.69.46.76,1,1.13,1.54,1,1.28,3.46,1.24,5,.72a4.24,4.24,0,0,0,2.78-2.06c.76-1.7-.34-3.55-.62-4a7,7,0,0,0-1.44-1.64A14.19,14.19,0,0,0,1054.79,952.31Z" transform="translate(-1008.28 -925.58)"/></svg>